$MeshFormat
2.2 0 8
$EndMeshFormat
$PhysicalNames
7
2 1 "xMaxSource"
2 2 "xMinSource"
2 3 "yMaxSource"
2 4 "yMinSource"
2 5 "zMaxSource"
2 6 "zMinSource"
3 7 "fluid"
$EndPhysicalNames
$Nodes
242
1 -5 -5 0
2 5 -5 0
3 5 5 0
4 -5 5 0
5 -5 -5 0.1
6 5 -5 0.1
7 5 5 0.1
8 -5 5 0.1
9 -3.999999999998765 -5 0
10 -3.00000000000086 -5 0
11 -2.000000000004066 -5 0
12 -1.000000000007237 -5 0
13 -6.140865593806666e-12 -5 0
14 0.9999999999950884 -5 0
15 1.999999999996316 -5 0
16 2.999999999997543 -5 0
17 3.999999999998773 -5 0
18 5 -3.999999999998765 0
19 5 -3.00000000000086 0
20 5 -2.000000000004066 0
21 5 -1.000000000007237 0
22 5 -6.140865593806666e-12 0
23 5 0.9999999999950884 0
24 5 1.999999999996316 0
25 5 2.999999999997543 0
26 5 3.999999999998773 0
27 3.999999999998765 5 0
28 3.00000000000086 5 0
29 2.000000000004066 5 0
30 1.000000000007237 5 0
31 6.140865593806666e-12 5 0
32 -0.9999999999950884 5 0
33 -1.999999999996316 5 0
34 -2.999999999997543 5 0
35 -3.999999999998773 5 0
36 -5 3.999999999998765 0
37 -5 3.00000000000086 0
38 -5 2.000000000004066 0
39 -5 1.000000000007237 0
40 -5 6.140865593806666e-12 0
41 -5 -0.9999999999950884 0
42 -5 -1.999999999996316 0
43 -5 -2.999999999997543 0
44 -5 -3.999999999998773 0
45 -3.999999999998765 -5 0.1
46 -3.00000000000086 -5 0.1
47 -2.000000000004066 -5 0.1
48 -1.000000000007237 -5 0.1
49 -6.140865593806666e-12 -5 0.1
50 0.9999999999950884 -5 0.1
51 1.999999999996316 -5 0.1
52 2.999999999997543 -5 0.1
53 3.999999999998773 -5 0.1
54 5 -3.999999999998765 0.1
55 5 -3.00000000000086 0.1
56 5 -2.000000000004066 0.1
57 5 -1.000000000007237 0.1
58 5 -6.140865593806666e-12 0.1
59 5 0.9999999999950884 0.1
60 5 1.999999999996316 0.1
61 5 2.999999999997543 0.1
62 5 3.999999999998773 0.1
63 3.999999999998765 5 0.1
64 3.00000000000086 5 0.1
65 2.000000000004066 5 0.1
66 1.000000000007237 5 0.1
67 6.140865593806666e-12 5 0.1
68 -0.9999999999950884 5 0.1
69 -1.999999999996316 5 0.1
70 -2.999999999997543 5 0.1
71 -3.999999999998773 5 0.1
72 -5 3.999999999998765 0.1
73 -5 3.00000000000086 0.1
74 -5 2.000000000004066 0.1
75 -5 1.000000000007237 0.1
76 -5 6.140865593806666e-12 0.1
77 -5 -0.9999999999950884 0.1
78 -5 -1.999999999996316 0.1
79 -5 -2.999999999997543 0.1
80 -5 -3.999999999998773 0.1
81 -3.999999999998765 -3.999999999998772 0
82 -3.999999999998766 -2.999999999997874 0
83 -3.999999999998768 -1.999999999997091 0
84 -3.999999999998767 -0.999999999996303 0
85 -3.999999999998768 4.912514839361393e-12 0
86 -3.999999999998769 1.000000000006022 0
87 -3.999999999998771 2.00000000000329 0
88 -3.999999999998771 3.000000000000528 0
89 -3.999999999998772 3.999999999998765 0
90 -3.000000000000528 -3.999999999998772 0
91 -3.000000000000195 -2.999999999998205 0
92 -2.999999999999865 -1.999999999997865 0
93 -2.999999999999533 -0.999999999997518 0
94 -2.999999999999201 3.684830218730895e-12 0
95 -2.99999999999887 1.000000000004807 0
96 -2.999999999998537 2.000000000002515 0
97 -2.999999999998207 3.000000000000196 0
98 -2.999999999997875 3.999999999998765 0
99 -2.00000000000329 -3.99999999999877 0
100 -2.000000000002516 -2.999999999998537 0
101 -2.00000000000174 -1.99999999999864 0
102 -2.000000000000965 -0.9999999999987326 0
103 -2.000000000000191 2.456479464285621e-12 0
104 -1.999999999999416 1.000000000003592 0
105 -1.99999999999864 2.00000000000174 0
106 -1.999999999997865 2.999999999999865 0
107 -1.99999999999709 3.999999999998767 0
108 -1.000000000006022 -3.999999999998769 0
109 -1.000000000004807 -2.99999999999887 0
110 -1.000000000003592 -1.999999999999415 0
111 -1.000000000002377 -0.9999999999999474 0
112 -1.000000000001163 1.228572799050198e-12 0
113 -0.9999999999999476 1.000000000002377 0
114 -0.9999999999987323 2.000000000000965 0
115 -0.999999999997518 2.999999999999533 0
116 -0.9999999999963027 3.999999999998767 0
117 -4.912692475043821e-12 -3.999999999998769 0
118 -3.684519356283019e-12 -2.999999999999202 0
119 -2.456346237522901e-12 -2.000000000000191 0
120 -1.228173118762761e-12 -1.000000000001163 0
121 0 0 0
122 1.228173118762761e-12 1.000000000001162 0
123 2.456346237522901e-12 2.000000000000191 0
124 3.684519356283019e-12 2.999999999999202 0
125 4.912692475043821e-12 3.999999999998769 0
126 0.999999999996303 -3.999999999998769 0
127 0.9999999999975178 -2.999999999999532 0
128 0.9999999999987326 -2.000000000000965 0
129 0.9999999999999476 -1.000000000002377 0
130 1.000000000001163 -1.228239732142811e-12 0
131 1.000000000002377 0.9999999999999474 0
132 1.000000000003592 1.999999999999416 0
133 1.000000000004807 2.99999999999887 0
134 1.000000000006022 3.999999999998769 0
135 1.999999999997091 -3.999999999998768 0
136 1.999999999997865 -2.999999999999865 0
137 1.99999999999864 -2.00000000000174 0
138 1.999999999999415 -1.000000000003591 0
139 2.000000000000191 -2.456146397378234e-12 0
140 2.000000000000965 0.9999999999987321 0
141 2.00000000000174 1.999999999998641 0
142 2.000000000002515 2.999999999998538 0
143 2.00000000000329 3.99999999999877 0
144 2.999999999997875 -3.999999999998766 0
145 2.999999999998206 -3.000000000000196 0
146 2.999999999998538 -2.000000000002517 0
147 2.999999999998869 -1.000000000004807 0
148 2.999999999999202 -3.684497151823507e-12 0
149 2.999999999999533 0.999999999997518 0
150 2.999999999999865 1.999999999997865 0
151 3.000000000000195 2.999999999998206 0
152 3.000000000000527 3.999999999998771 0
153 3.999999999998772 -3.999999999998765 0
154 3.999999999998771 -3.000000000000527 0
155 3.999999999998771 -2.000000000003292 0
156 3.999999999998769 -1.000000000006021 0
157 3.999999999998769 -4.912514839361393e-12 0
158 3.999999999998767 0.9999999999963027 0
159 3.999999999998767 1.999999999997091 0
160 3.999999999998766 2.999999999997875 0
161 3.999999999998765 3.999999999998772 0
162 -3.999999999998765 -3.999999999998772 0.1
163 -3.999999999998766 -2.999999999997874 0.1
164 -3.999999999998768 -1.999999999997091 0.1
165 -3.999999999998767 -0.999999999996303 0.1
166 -3.999999999998768 4.912514839361393e-12 0.1
167 -3.999999999998769 1.000000000006022 0.1
168 -3.999999999998771 2.00000000000329 0.1
169 -3.999999999998771 3.000000000000528 0.1
170 -3.999999999998772 3.999999999998765 0.1
171 -3.000000000000528 -3.999999999998772 0.1
172 -3.000000000000195 -2.999999999998205 0.1
173 -2.999999999999865 -1.999999999997865 0.1
174 -2.999999999999533 -0.999999999997518 0.1
175 -2.999999999999201 3.684830218730895e-12 0.1
176 -2.99999999999887 1.000000000004807 0.1
177 -2.999999999998537 2.000000000002515 0.1
178 -2.999999999998207 3.000000000000196 0.1
179 -2.999999999997875 3.999999999998765 0.1
180 -2.00000000000329 -3.99999999999877 0.1
181 -2.000000000002516 -2.999999999998537 0.1
182 -2.00000000000174 -1.99999999999864 0.1
183 -2.000000000000965 -0.9999999999987326 0.1
184 -2.000000000000191 2.456479464285621e-12 0.1
185 -1.999999999999416 1.000000000003592 0.1
186 -1.99999999999864 2.00000000000174 0.1
187 -1.999999999997865 2.999999999999865 0.1
188 -1.99999999999709 3.999999999998767 0.1
189 -1.000000000006022 -3.999999999998769 0.1
190 -1.000000000004807 -2.99999999999887 0.1
191 -1.000000000003592 -1.999999999999415 0.1
192 -1.000000000002377 -0.9999999999999474 0.1
193 -1.000000000001163 1.228572799050198e-12 0.1
194 -0.9999999999999476 1.000000000002377 0.1
195 -0.9999999999987323 2.000000000000965 0.1
196 -0.999999999997518 2.999999999999533 0.1
197 -0.9999999999963027 3.999999999998767 0.1
198 -4.912692475043821e-12 -3.999999999998769 0.1
199 -3.684519356283019e-12 -2.999999999999202 0.1
200 -2.456346237522901e-12 -2.000000000000191 0.1
201 -1.228173118762761e-12 -1.000000000001163 0.1
202 0 0 0.1
203 1.228173118762761e-12 1.000000000001162 0.1
204 2.456346237522901e-12 2.000000000000191 0.1
205 3.684519356283019e-12 2.999999999999202 0.1
206 4.912692475043821e-12 3.999999999998769 0.1
207 0.999999999996303 -3.999999999998769 0.1
208 0.9999999999975178 -2.999999999999532 0.1
209 0.9999999999987326 -2.000000000000965 0.1
210 0.9999999999999476 -1.000000000002377 0.1
211 1.000000000001163 -1.228239732142811e-12 0.1
212 1.000000000002377 0.9999999999999474 0.1
213 1.000000000003592 1.999999999999416 0.1
214 1.000000000004807 2.99999999999887 0.1
215 1.000000000006022 3.999999999998769 0.1
216 1.999999999997091 -3.999999999998768 0.1
217 1.999999999997865 -2.999999999999865 0.1
218 1.99999999999864 -2.00000000000174 0.1
219 1.999999999999415 -1.000000000003591 0.1
220 2.000000000000191 -2.456146397378234e-12 0.1
221 2.000000000000965 0.9999999999987321 0.1
222 2.00000000000174 1.999999999998641 0.1
223 2.000000000002515 2.999999999998538 0.1
224 2.00000000000329 3.99999999999877 0.1
225 2.999999999997875 -3.999999999998766 0.1
226 2.999999999998206 -3.000000000000196 0.1
227 2.999999999998538 -2.000000000002517 0.1
228 2.999999999998869 -1.000000000004807 0.1
229 2.999999999999202 -3.684497151823507e-12 0.1
230 2.999999999999533 0.999999999997518 0.1
231 2.999999999999865 1.999999999997865 0.1
232 3.000000000000195 2.999999999998206 0.1
233 3.000000000000527 3.999999999998771 0.1
234 3.999999999998772 -3.999999999998765 0.1
235 3.999999999998771 -3.000000000000527 0.1
236 3.999999999998771 -2.000000000003292 0.1
237 3.999999999998769 -1.000000000006021 0.1
238 3.999999999998769 -4.912514839361393e-12 0.1
239 3.999999999998767 0.9999999999963027 0.1
240 3.999999999998767 1.999999999997091 0.1
241 3.999999999998766 2.999999999997875 0.1
242 3.999999999998765 3.999999999998772 0.1
$EndNodes
$Elements
680
1 2 2 6 1 1 9 44
2 2 2 6 1 44 9 81
3 2 2 6 1 44 81 82
4 2 2 6 1 82 43 44
5 2 2 6 1 43 82 42
6 2 2 6 1 42 82 83
7 2 2 6 1 42 83 84
8 2 2 6 1 84 41 42
9 2 2 6 1 41 84 40
10 2 2 6 1 40 84 85
11 2 2 6 1 40 85 86
12 2 2 6 1 86 39 40
13 2 2 6 1 39 86 38
14 2 2 6 1 38 86 87
15 2 2 6 1 38 87 88
16 2 2 6 1 88 37 38
17 2 2 6 1 37 88 36
18 2 2 6 1 36 88 89
19 2 2 6 1 36 89 35
20 2 2 6 1 35 4 36
21 2 2 6 1 9 10 90
22 2 2 6 1 90 81 9
23 2 2 6 1 81 90 82
24 2 2 6 1 82 90 91
25 2 2 6 1 82 91 92
26 2 2 6 1 92 83 82
27 2 2 6 1 83 92 84
28 2 2 6 1 84 92 93
29 2 2 6 1 84 93 94
30 2 2 6 1 94 85 84
31 2 2 6 1 85 94 86
32 2 2 6 1 86 94 95
33 2 2 6 1 86 95 96
34 2 2 6 1 96 87 86
35 2 2 6 1 87 96 88
36 2 2 6 1 88 96 97
37 2 2 6 1 88 97 98
38 2 2 6 1 98 89 88
39 2 2 6 1 89 98 35
40 2 2 6 1 35 98 34
41 2 2 6 1 10 11 90
42 2 2 6 1 90 11 99
43 2 2 6 1 90 99 100
44 2 2 6 1 100 91 90
45 2 2 6 1 91 100 92
46 2 2 6 1 92 100 101
47 2 2 6 1 92 101 102
48 2 2 6 1 102 93 92
49 2 2 6 1 93 102 94
50 2 2 6 1 94 102 103
51 2 2 6 1 94 103 104
52 2 2 6 1 104 95 94
53 2 2 6 1 95 104 96
54 2 2 6 1 96 104 105
55 2 2 6 1 96 105 106
56 2 2 6 1 106 97 96
57 2 2 6 1 97 106 98
58 2 2 6 1 98 106 107
59 2 2 6 1 98 107 33
60 2 2 6 1 33 34 98
61 2 2 6 1 11 12 108
62 2 2 6 1 108 99 11
63 2 2 6 1 99 108 100
64 2 2 6 1 100 108 109
65 2 2 6 1 100 109 110
66 2 2 6 1 110 101 100
67 2 2 6 1 101 110 102
68 2 2 6 1 102 110 111
69 2 2 6 1 102 111 112
70 2 2 6 1 112 103 102
71 2 2 6 1 103 112 104
72 2 2 6 1 104 112 113
73 2 2 6 1 104 113 114
74 2 2 6 1 114 105 104
75 2 2 6 1 105 114 106
76 2 2 6 1 106 114 115
77 2 2 6 1 106 115 116
78 2 2 6 1 116 107 106
79 2 2 6 1 107 116 33
80 2 2 6 1 33 116 32
81 2 2 6 1 12 13 108
82 2 2 6 1 108 13 117
83 2 2 6 1 108 117 118
84 2 2 6 1 118 109 108
85 2 2 6 1 109 118 110
86 2 2 6 1 110 118 119
87 2 2 6 1 110 119 120
88 2 2 6 1 120 111 110
89 2 2 6 1 111 120 112
90 2 2 6 1 112 120 121
91 2 2 6 1 112 121 122
92 2 2 6 1 122 113 112
93 2 2 6 1 113 122 114
94 2 2 6 1 114 122 123
95 2 2 6 1 114 123 124
96 2 2 6 1 124 115 114
97 2 2 6 1 115 124 116
98 2 2 6 1 116 124 125
99 2 2 6 1 116 125 31
100 2 2 6 1 31 32 116
101 2 2 6 1 13 14 126
102 2 2 6 1 126 117 13
103 2 2 6 1 117 126 118
104 2 2 6 1 118 126 127
105 2 2 6 1 118 127 128
106 2 2 6 1 128 119 118
107 2 2 6 1 119 128 120
108 2 2 6 1 120 128 129
109 2 2 6 1 120 129 130
110 2 2 6 1 130 121 120
111 2 2 6 1 121 130 122
112 2 2 6 1 122 130 131
113 2 2 6 1 122 131 132
114 2 2 6 1 132 123 122
115 2 2 6 1 123 132 124
116 2 2 6 1 124 132 133
117 2 2 6 1 124 133 134
118 2 2 6 1 134 125 124
119 2 2 6 1 125 134 31
120 2 2 6 1 31 134 30
121 2 2 6 1 14 15 126
122 2 2 6 1 126 15 135
123 2 2 6 1 126 135 136
124 2 2 6 1 136 127 126
125 2 2 6 1 127 136 128
126 2 2 6 1 128 136 137
127 2 2 6 1 128 137 138
128 2 2 6 1 138 129 128
129 2 2 6 1 129 138 130
130 2 2 6 1 130 138 139
131 2 2 6 1 130 139 140
132 2 2 6 1 140 131 130
133 2 2 6 1 131 140 132
134 2 2 6 1 132 140 141
135 2 2 6 1 132 141 142
136 2 2 6 1 142 133 132
137 2 2 6 1 133 142 134
138 2 2 6 1 134 142 143
139 2 2 6 1 134 143 29
140 2 2 6 1 29 30 134
141 2 2 6 1 15 16 144
142 2 2 6 1 144 135 15
143 2 2 6 1 135 144 136
144 2 2 6 1 136 144 145
145 2 2 6 1 136 145 146
146 2 2 6 1 146 137 136
147 2 2 6 1 137 146 138
148 2 2 6 1 138 146 147
149 2 2 6 1 138 147 148
150 2 2 6 1 148 139 138
151 2 2 6 1 139 148 140
152 2 2 6 1 140 148 149
153 2 2 6 1 140 149 150
154 2 2 6 1 150 141 140
155 2 2 6 1 141 150 142
156 2 2 6 1 142 150 151
157 2 2 6 1 142 151 152
158 2 2 6 1 152 143 142
159 2 2 6 1 143 152 29
160 2 2 6 1 29 152 28
161 2 2 6 1 16 17 144
162 2 2 6 1 144 17 153
163 2 2 6 1 144 153 154
164 2 2 6 1 154 145 144
165 2 2 6 1 145 154 146
166 2 2 6 1 146 154 155
167 2 2 6 1 146 155 156
168 2 2 6 1 156 147 146
169 2 2 6 1 147 156 148
170 2 2 6 1 148 156 157
171 2 2 6 1 148 157 158
172 2 2 6 1 158 149 148
173 2 2 6 1 149 158 150
174 2 2 6 1 150 158 159
175 2 2 6 1 150 159 160
176 2 2 6 1 160 151 150
177 2 2 6 1 151 160 152
178 2 2 6 1 152 160 161
179 2 2 6 1 152 161 27
180 2 2 6 1 27 28 152
181 2 2 6 1 17 2 18
182 2 2 6 1 18 153 17
183 2 2 6 1 153 18 154
184 2 2 6 1 154 18 19
185 2 2 6 1 154 19 20
186 2 2 6 1 20 155 154
187 2 2 6 1 155 20 156
188 2 2 6 1 156 20 21
189 2 2 6 1 156 21 22
190 2 2 6 1 22 157 156
191 2 2 6 1 157 22 158
192 2 2 6 1 158 22 23
193 2 2 6 1 158 23 24
194 2 2 6 1 24 159 158
195 2 2 6 1 159 24 160
196 2 2 6 1 160 24 25
197 2 2 6 1 160 25 26
198 2 2 6 1 26 161 160
199 2 2 6 1 161 26 27
200 2 2 6 1 27 26 3
201 2 2 4 13 1 9 5
202 2 2 4 13 5 9 45
203 2 2 4 13 9 10 46
204 2 2 4 13 46 45 9
205 2 2 4 13 10 11 46
206 2 2 4 13 46 11 47
207 2 2 4 13 11 12 48
208 2 2 4 13 48 47 11
209 2 2 4 13 12 13 48
210 2 2 4 13 48 13 49
211 2 2 4 13 13 14 50
212 2 2 4 13 50 49 13
213 2 2 4 13 14 15 50
214 2 2 4 13 50 15 51
215 2 2 4 13 15 16 52
216 2 2 4 13 52 51 15
217 2 2 4 13 16 17 52
218 2 2 4 13 52 17 53
219 2 2 4 13 17 2 6
220 2 2 4 13 6 53 17
221 2 2 1 17 2 18 6
222 2 2 1 17 6 18 54
223 2 2 1 17 18 19 55
224 2 2 1 17 55 54 18
225 2 2 1 17 19 20 55
226 2 2 1 17 55 20 56
227 2 2 1 17 20 21 57
228 2 2 1 17 57 56 20
229 2 2 1 17 21 22 57
230 2 2 1 17 57 22 58
231 2 2 1 17 22 23 59
232 2 2 1 17 59 58 22
233 2 2 1 17 23 24 59
234 2 2 1 17 59 24 60
235 2 2 1 17 24 25 61
236 2 2 1 17 61 60 24
237 2 2 1 17 25 26 61
238 2 2 1 17 61 26 62
239 2 2 1 17 26 3 7
240 2 2 1 17 7 62 26
241 2 2 3 21 3 27 7
242 2 2 3 21 7 27 63
243 2 2 3 21 27 28 64
244 2 2 3 21 64 63 27
245 2 2 3 21 28 29 64
246 2 2 3 21 64 29 65
247 2 2 3 21 29 30 66
248 2 2 3 21 66 65 29
249 2 2 3 21 30 31 66
250 2 2 3 21 66 31 67
251 2 2 3 21 31 32 68
252 2 2 3 21 68 67 31
253 2 2 3 21 32 33 68
254 2 2 3 21 68 33 69
255 2 2 3 21 33 34 70
256 2 2 3 21 70 69 33
257 2 2 3 21 34 35 70
258 2 2 3 21 70 35 71
259 2 2 3 21 35 4 8
260 2 2 3 21 8 71 35
261 2 2 2 25 1 5 44
262 2 2 2 25 5 80 44
263 2 2 2 25 44 79 43
264 2 2 2 25 79 44 80
265 2 2 2 25 43 79 42
266 2 2 2 25 79 78 42
267 2 2 2 25 42 77 41
268 2 2 2 25 77 42 78
269 2 2 2 25 41 77 40
270 2 2 2 25 77 76 40
271 2 2 2 25 40 75 39
272 2 2 2 25 75 40 76
273 2 2 2 25 39 75 38
274 2 2 2 25 75 74 38
275 2 2 2 25 38 73 37
276 2 2 2 25 73 38 74
277 2 2 2 25 37 73 36
278 2 2 2 25 73 72 36
279 2 2 2 25 36 8 4
280 2 2 2 25 8 36 72
281 2 2 5 26 5 45 80
282 2 2 5 26 80 45 162
283 2 2 5 26 80 162 163
284 2 2 5 26 163 79 80
285 2 2 5 26 79 163 78
286 2 2 5 26 78 163 164
287 2 2 5 26 78 164 165
288 2 2 5 26 165 77 78
289 2 2 5 26 77 165 76
290 2 2 5 26 76 165 166
291 2 2 5 26 76 166 167
292 2 2 5 26 167 75 76
293 2 2 5 26 75 167 74
294 2 2 5 26 74 167 168
295 2 2 5 26 74 168 169
296 2 2 5 26 169 73 74
297 2 2 5 26 73 169 72
298 2 2 5 26 72 169 170
299 2 2 5 26 72 170 71
300 2 2 5 26 71 8 72
301 2 2 5 26 45 46 171
302 2 2 5 26 171 162 45
303 2 2 5 26 162 171 163
304 2 2 5 26 163 171 172
305 2 2 5 26 163 172 173
306 2 2 5 26 173 164 163
307 2 2 5 26 164 173 165
308 2 2 5 26 165 173 174
309 2 2 5 26 165 174 175
310 2 2 5 26 175 166 165
311 2 2 5 26 166 175 167
312 2 2 5 26 167 175 176
313 2 2 5 26 167 176 177
314 2 2 5 26 177 168 167
315 2 2 5 26 168 177 169
316 2 2 5 26 169 177 178
317 2 2 5 26 169 178 179
318 2 2 5 26 179 170 169
319 2 2 5 26 170 179 71
320 2 2 5 26 71 179 70
321 2 2 5 26 46 47 171
322 2 2 5 26 171 47 180
323 2 2 5 26 171 180 181
324 2 2 5 26 181 172 171
325 2 2 5 26 172 181 173
326 2 2 5 26 173 181 182
327 2 2 5 26 173 182 183
328 2 2 5 26 183 174 173
329 2 2 5 26 174 183 175
330 2 2 5 26 175 183 184
331 2 2 5 26 175 184 185
332 2 2 5 26 185 176 175
333 2 2 5 26 176 185 177
334 2 2 5 26 177 185 186
335 2 2 5 26 177 186 187
336 2 2 5 26 187 178 177
337 2 2 5 26 178 187 179
338 2 2 5 26 179 187 188
339 2 2 5 26 179 188 69
340 2 2 5 26 69 70 179
341 2 2 5 26 47 48 189
342 2 2 5 26 189 180 47
343 2 2 5 26 180 189 181
344 2 2 5 26 181 189 190
345 2 2 5 26 181 190 191
346 2 2 5 26 191 182 181
347 2 2 5 26 182 191 183
348 2 2 5 26 183 191 192
349 2 2 5 26 183 192 193
350 2 2 5 26 193 184 183
351 2 2 5 26 184 193 185
352 2 2 5 26 185 193 194
353 2 2 5 26 185 194 195
354 2 2 5 26 195 186 185
355 2 2 5 26 186 195 187
356 2 2 5 26 187 195 196
357 2 2 5 26 187 196 197
358 2 2 5 26 197 188 187
359 2 2 5 26 188 197 69
360 2 2 5 26 69 197 68
361 2 2 5 26 48 49 189
362 2 2 5 26 189 49 198
363 2 2 5 26 189 198 199
364 2 2 5 26 199 190 189
365 2 2 5 26 190 199 191
366 2 2 5 26 191 199 200
367 2 2 5 26 191 200 201
368 2 2 5 26 201 192 191
369 2 2 5 26 192 201 193
370 2 2 5 26 193 201 202
371 2 2 5 26 193 202 203
372 2 2 5 26 203 194 193
373 2 2 5 26 194 203 195
374 2 2 5 26 195 203 204
375 2 2 5 26 195 204 205
376 2 2 5 26 205 196 195
377 2 2 5 26 196 205 197
378 2 2 5 26 197 205 206
379 2 2 5 26 197 206 67
380 2 2 5 26 67 68 197
381 2 2 5 26 49 50 207
382 2 2 5 26 207 198 49
383 2 2 5 26 198 207 199
384 2 2 5 26 199 207 208
385 2 2 5 26 199 208 209
386 2 2 5 26 209 200 199
387 2 2 5 26 200 209 201
388 2 2 5 26 201 209 210
389 2 2 5 26 201 210 211
390 2 2 5 26 211 202 201
391 2 2 5 26 202 211 203
392 2 2 5 26 203 211 212
393 2 2 5 26 203 212 213
394 2 2 5 26 213 204 203
395 2 2 5 26 204 213 205
396 2 2 5 26 205 213 214
397 2 2 5 26 205 214 215
398 2 2 5 26 215 206 205
399 2 2 5 26 206 215 67
400 2 2 5 26 67 215 66
401 2 2 5 26 50 51 207
402 2 2 5 26 207 51 216
403 2 2 5 26 207 216 217
404 2 2 5 26 217 208 207
405 2 2 5 26 208 217 209
406 2 2 5 26 209 217 218
407 2 2 5 26 209 218 219
408 2 2 5 26 219 210 209
409 2 2 5 26 210 219 211
410 2 2 5 26 211 219 220
411 2 2 5 26 211 220 221
412 2 2 5 26 221 212 211
413 2 2 5 26 212 221 213
414 2 2 5 26 213 221 222
415 2 2 5 26 213 222 223
416 2 2 5 26 223 214 213
417 2 2 5 26 214 223 215
418 2 2 5 26 215 223 224
419 2 2 5 26 215 224 65
420 2 2 5 26 65 66 215
421 2 2 5 26 51 52 225
422 2 2 5 26 225 216 51
423 2 2 5 26 216 225 217
424 2 2 5 26 217 225 226
425 2 2 5 26 217 226 227
426 2 2 5 26 227 218 217
427 2 2 5 26 218 227 219
428 2 2 5 26 219 227 228
429 2 2 5 26 219 228 229
430 2 2 5 26 229 220 219
431 2 2 5 26 220 229 221
432 2 2 5 26 221 229 230
433 2 2 5 26 221 230 231
434 2 2 5 26 231 222 221
435 2 2 5 26 222 231 223
436 2 2 5 26 223 231 232
437 2 2 5 26 223 232 233
438 2 2 5 26 233 224 223
439 2 2 5 26 224 233 65
440 2 2 5 26 65 233 64
441 2 2 5 26 52 53 225
442 2 2 5 26 225 53 234
443 2 2 5 26 225 234 235
444 2 2 5 26 235 226 225
445 2 2 5 26 226 235 227
446 2 2 5 26 227 235 236
447 2 2 5 26 227 236 237
448 2 2 5 26 237 228 227
449 2 2 5 26 228 237 229
450 2 2 5 26 229 237 238
451 2 2 5 26 229 238 239
452 2 2 5 26 239 230 229
453 2 2 5 26 230 239 231
454 2 2 5 26 231 239 240
455 2 2 5 26 231 240 241
456 2 2 5 26 241 232 231
457 2 2 5 26 232 241 233
458 2 2 5 26 233 241 242
459 2 2 5 26 233 242 63
460 2 2 5 26 63 64 233
461 2 2 5 26 53 6 54
462 2 2 5 26 54 234 53
463 2 2 5 26 234 54 235
464 2 2 5 26 235 54 55
465 2 2 5 26 235 55 56
466 2 2 5 26 56 236 235
467 2 2 5 26 236 56 237
468 2 2 5 26 237 56 57
469 2 2 5 26 237 57 58
470 2 2 5 26 58 238 237
471 2 2 5 26 238 58 239
472 2 2 5 26 239 58 59
473 2 2 5 26 239 59 60
474 2 2 5 26 60 240 239
475 2 2 5 26 240 60 241
476 2 2 5 26 241 60 61
477 2 2 5 26 241 61 62
478 2 2 5 26 62 242 241
479 2 2 5 26 242 62 63
480 2 2 5 26 63 62 7
481 6 2 7 1 1 9 44 5 45 80
482 6 2 7 1 44 9 81 80 45 162
483 6 2 7 1 44 81 82 80 162 163
484 6 2 7 1 82 43 44 163 79 80
485 6 2 7 1 43 82 42 79 163 78
486 6 2 7 1 42 82 83 78 163 164
487 6 2 7 1 42 83 84 78 164 165
488 6 2 7 1 84 41 42 165 77 78
489 6 2 7 1 41 84 40 77 165 76
490 6 2 7 1 40 84 85 76 165 166
491 6 2 7 1 40 85 86 76 166 167
492 6 2 7 1 86 39 40 167 75 76
493 6 2 7 1 39 86 38 75 167 74
494 6 2 7 1 38 86 87 74 167 168
495 6 2 7 1 38 87 88 74 168 169
496 6 2 7 1 88 37 38 169 73 74
497 6 2 7 1 37 88 36 73 169 72
498 6 2 7 1 36 88 89 72 169 170
499 6 2 7 1 36 89 35 72 170 71
500 6 2 7 1 35 4 36 71 8 72
501 6 2 7 1 9 10 90 45 46 171
502 6 2 7 1 90 81 9 171 162 45
503 6 2 7 1 81 90 82 162 171 163
504 6 2 7 1 82 90 91 163 171 172
505 6 2 7 1 82 91 92 163 172 173
506 6 2 7 1 92 83 82 173 164 163
507 6 2 7 1 83 92 84 164 173 165
508 6 2 7 1 84 92 93 165 173 174
509 6 2 7 1 84 93 94 165 174 175
510 6 2 7 1 94 85 84 175 166 165
511 6 2 7 1 85 94 86 166 175 167
512 6 2 7 1 86 94 95 167 175 176
513 6 2 7 1 86 95 96 167 176 177
514 6 2 7 1 96 87 86 177 168 167
515 6 2 7 1 87 96 88 168 177 169
516 6 2 7 1 88 96 97 169 177 178
517 6 2 7 1 88 97 98 169 178 179
518 6 2 7 1 98 89 88 179 170 169
519 6 2 7 1 89 98 35 170 179 71
520 6 2 7 1 35 98 34 71 179 70
521 6 2 7 1 10 11 90 46 47 171
522 6 2 7 1 90 11 99 171 47 180
523 6 2 7 1 90 99 100 171 180 181
524 6 2 7 1 100 91 90 181 172 171
525 6 2 7 1 91 100 92 172 181 173
526 6 2 7 1 92 100 101 173 181 182
527 6 2 7 1 92 101 102 173 182 183
528 6 2 7 1 102 93 92 183 174 173
529 6 2 7 1 93 102 94 174 183 175
530 6 2 7 1 94 102 103 175 183 184
531 6 2 7 1 94 103 104 175 184 185
532 6 2 7 1 104 95 94 185 176 175
533 6 2 7 1 95 104 96 176 185 177
534 6 2 7 1 96 104 105 177 185 186
535 6 2 7 1 96 105 106 177 186 187
536 6 2 7 1 106 97 96 187 178 177
537 6 2 7 1 97 106 98 178 187 179
538 6 2 7 1 98 106 107 179 187 188
539 6 2 7 1 98 107 33 179 188 69
540 6 2 7 1 33 34 98 69 70 179
541 6 2 7 1 11 12 108 47 48 189
542 6 2 7 1 108 99 11 189 180 47
543 6 2 7 1 99 108 100 180 189 181
544 6 2 7 1 100 108 109 181 189 190
545 6 2 7 1 100 109 110 181 190 191
546 6 2 7 1 110 101 100 191 182 181
547 6 2 7 1 101 110 102 182 191 183
548 6 2 7 1 102 110 111 183 191 192
549 6 2 7 1 102 111 112 183 192 193
550 6 2 7 1 112 103 102 193 184 183
551 6 2 7 1 103 112 104 184 193 185
552 6 2 7 1 104 112 113 185 193 194
553 6 2 7 1 104 113 114 185 194 195
554 6 2 7 1 114 105 104 195 186 185
555 6 2 7 1 105 114 106 186 195 187
556 6 2 7 1 106 114 115 187 195 196
557 6 2 7 1 106 115 116 187 196 197
558 6 2 7 1 116 107 106 197 188 187
559 6 2 7 1 107 116 33 188 197 69
560 6 2 7 1 33 116 32 69 197 68
561 6 2 7 1 12 13 108 48 49 189
562 6 2 7 1 108 13 117 189 49 198
563 6 2 7 1 108 117 118 189 198 199
564 6 2 7 1 118 109 108 199 190 189
565 6 2 7 1 109 118 110 190 199 191
566 6 2 7 1 110 118 119 191 199 200
567 6 2 7 1 110 119 120 191 200 201
568 6 2 7 1 120 111 110 201 192 191
569 6 2 7 1 111 120 112 192 201 193
570 6 2 7 1 112 120 121 193 201 202
571 6 2 7 1 112 121 122 193 202 203
572 6 2 7 1 122 113 112 203 194 193
573 6 2 7 1 113 122 114 194 203 195
574 6 2 7 1 114 122 123 195 203 204
575 6 2 7 1 114 123 124 195 204 205
576 6 2 7 1 124 115 114 205 196 195
577 6 2 7 1 115 124 116 196 205 197
578 6 2 7 1 116 124 125 197 205 206
579 6 2 7 1 116 125 31 197 206 67
580 6 2 7 1 31 32 116 67 68 197
581 6 2 7 1 13 14 126 49 50 207
582 6 2 7 1 126 117 13 207 198 49
583 6 2 7 1 117 126 118 198 207 199
584 6 2 7 1 118 126 127 199 207 208
585 6 2 7 1 118 127 128 199 208 209
586 6 2 7 1 128 119 118 209 200 199
587 6 2 7 1 119 128 120 200 209 201
588 6 2 7 1 120 128 129 201 209 210
589 6 2 7 1 120 129 130 201 210 211
590 6 2 7 1 130 121 120 211 202 201
591 6 2 7 1 121 130 122 202 211 203
592 6 2 7 1 122 130 131 203 211 212
593 6 2 7 1 122 131 132 203 212 213
594 6 2 7 1 132 123 122 213 204 203
595 6 2 7 1 123 132 124 204 213 205
596 6 2 7 1 124 132 133 205 213 214
597 6 2 7 1 124 133 134 205 214 215
598 6 2 7 1 134 125 124 215 206 205
599 6 2 7 1 125 134 31 206 215 67
600 6 2 7 1 31 134 30 67 215 66
601 6 2 7 1 14 15 126 50 51 207
602 6 2 7 1 126 15 135 207 51 216
603 6 2 7 1 126 135 136 207 216 217
604 6 2 7 1 136 127 126 217 208 207
605 6 2 7 1 127 136 128 208 217 209
606 6 2 7 1 128 136 137 209 217 218
607 6 2 7 1 128 137 138 209 218 219
608 6 2 7 1 138 129 128 219 210 209
609 6 2 7 1 129 138 130 210 219 211
610 6 2 7 1 130 138 139 211 219 220
611 6 2 7 1 130 139 140 211 220 221
612 6 2 7 1 140 131 130 221 212 211
613 6 2 7 1 131 140 132 212 221 213
614 6 2 7 1 132 140 141 213 221 222
615 6 2 7 1 132 141 142 213 222 223
616 6 2 7 1 142 133 132 223 214 213
617 6 2 7 1 133 142 134 214 223 215
618 6 2 7 1 134 142 143 215 223 224
619 6 2 7 1 134 143 29 215 224 65
620 6 2 7 1 29 30 134 65 66 215
621 6 2 7 1 15 16 144 51 52 225
622 6 2 7 1 144 135 15 225 216 51
623 6 2 7 1 135 144 136 216 225 217
624 6 2 7 1 136 144 145 217 225 226
625 6 2 7 1 136 145 146 217 226 227
626 6 2 7 1 146 137 136 227 218 217
627 6 2 7 1 137 146 138 218 227 219
628 6 2 7 1 138 146 147 219 227 228
629 6 2 7 1 138 147 148 219 228 229
630 6 2 7 1 148 139 138 229 220 219
631 6 2 7 1 139 148 140 220 229 221
632 6 2 7 1 140 148 149 221 229 230
633 6 2 7 1 140 149 150 221 230 231
634 6 2 7 1 150 141 140 231 222 221
635 6 2 7 1 141 150 142 222 231 223
636 6 2 7 1 142 150 151 223 231 232
637 6 2 7 1 142 151 152 223 232 233
638 6 2 7 1 152 143 142 233 224 223
639 6 2 7 1 143 152 29 224 233 65
640 6 2 7 1 29 152 28 65 233 64
641 6 2 7 1 16 17 144 52 53 225
642 6 2 7 1 144 17 153 225 53 234
643 6 2 7 1 144 153 154 225 234 235
644 6 2 7 1 154 145 144 235 226 225
645 6 2 7 1 145 154 146 226 235 227
646 6 2 7 1 146 154 155 227 235 236
647 6 2 7 1 146 155 156 227 236 237
648 6 2 7 1 156 147 146 237 228 227
649 6 2 7 1 147 156 148 228 237 229
650 6 2 7 1 148 156 157 229 237 238
651 6 2 7 1 148 157 158 229 238 239
652 6 2 7 1 158 149 148 239 230 229
653 6 2 7 1 149 158 150 230 239 231
654 6 2 7 1 150 158 159 231 239 240
655 6 2 7 1 150 159 160 231 240 241
656 6 2 7 1 160 151 150 241 232 231
657 6 2 7 1 151 160 152 232 241 233
658 6 2 7 1 152 160 161 233 241 242
659 6 2 7 1 152 161 27 233 242 63
660 6 2 7 1 27 28 152 63 64 233
661 6 2 7 1 17 2 18 53 6 54
662 6 2 7 1 18 153 17 54 234 53
663 6 2 7 1 153 18 154 234 54 235
664 6 2 7 1 154 18 19 235 54 55
665 6 2 7 1 154 19 20 235 55 56
666 6 2 7 1 20 155 154 56 236 235
667 6 2 7 1 155 20 156 236 56 237
668 6 2 7 1 156 20 21 237 56 57
669 6 2 7 1 156 21 22 237 57 58
670 6 2 7 1 22 157 156 58 238 237
671 6 2 7 1 157 22 158 238 58 239
672 6 2 7 1 158 22 23 239 58 59
673 6 2 7 1 158 23 24 239 59 60
674 6 2 7 1 24 159 158 60 240 239
675 6 2 7 1 159 24 160 240 60 241
676 6 2 7 1 160 24 25 241 60 61
677 6 2 7 1 160 25 26 241 61 62
678 6 2 7 1 26 161 160 62 242 241
679 6 2 7 1 161 26 27 242 62 63
680 6 2 7 1 27 26 3 63 62 7
$EndElements
