$MeshFormat
2.2 0 8
$EndMeshFormat
$PhysicalNames
6
2 1 "frontSource"
2 2 "backSource"
2 3 "movingTop"
2 4 "leftWall"
2 5 "rightWall"
3 6 "fluid"
$EndPhysicalNames
$Nodes
288
1 -1.732050807568877 0 0
2 1.732050807568877 0 0
3 0 -3 0
4 -1.55884572681199 -0.09999999999999998 0
5 1.55884572681199 -0.09999999999999998 0
6 0 -2.8 0
7 -1.732050807568877 0 0.1
8 1.732050807568877 0 0.1
9 1.55884572681199 -0.09999999999999998 0.1
10 -1.55884572681199 -0.09999999999999998 0.1
11 0 -3 0.1
12 0 -2.8 0.1
13 -1.299038105677319 0 0
14 -0.866025403786543 0 0
15 -0.4330127018955485 0 0
16 -4.596767411157998e-12 0 0
17 0.4330127018888255 0 0
18 0.866025403782205 0 0
19 1.299038105675585 0 0
20 1.515544456623576 -0.3749999999985998 0
21 1.299038105678327 -0.7499999999971083 0
22 1.082531754732927 -1.124999999995881 0
23 0.866025403787512 -1.499999999994677 0
24 0.6495190528406409 -1.874999999995996 0
25 0.4330127018937571 -2.249999999997336 0
26 0.2165063509468732 -2.624999999998678 0
27 -0.2165063509452214 -2.625000000001538 0
28 -0.4330127018908336 -2.2500000000024 0
29 -0.6495190528368341 -1.875000000002589 0
30 -0.8660254037820592 -1.500000000004121 0
31 -1.082531754728757 -1.125000000003103 0
32 -1.299038105675467 -0.7500000000020628 0
33 -1.515544456622178 -0.3750000000010218 0
34 -1.336153480125009 -0.09999999999999998 0
35 -1.113461233438084 -0.09999999999999998 0
36 -0.8907689867512637 -0.09999999999999998 0
37 -0.6680767400644564 -0.09999999999999998 0
38 -0.4453844933776923 -0.09999999999999998 0
39 -0.2226922466908845 -0.09999999999999998 0
40 -4.033662293068119e-12 -0.09999999999999998 0
41 0.2226922466839203 -0.09999999999999998 0
42 0.4453844933720226 -0.09999999999999998 0
43 0.6680767400598895 -0.09999999999999998 0
44 0.8907689867477626 -0.09999999999999998 0
45 1.113461233435661 -0.09999999999999998 0
46 1.336153480123695 -0.09999999999999998 0
47 1.447499603468515 -0.2928571428567294 0
48 1.336153480125027 -0.4857142857134809 0
49 1.22480735678164 -0.678571428570058 0
50 1.113461233438231 -0.8714285714266735 0
51 1.002115110094844 -1.064285714283252 0
52 0.8907689867514189 -1.257142857139894 0
53 0.7794228634079886 -1.449999999996546 0
54 0.6680767400639965 -1.642857142854172 0
55 0.5567306167199857 -1.83571428571183 0
56 0.4453844933759987 -2.028571428569446 0
57 0.3340383700320058 -2.221428571427073 0
58 0.222692246688053 -2.41428571428463 0
59 0.1113461233440345 -2.607142857142301 0
60 -0.1113461233433891 -2.607142857143419 0
61 -0.2226922466868928 -2.41428571428664 0
62 -0.3340383700302188 -2.221428571430168 0
63 -0.4453844933736795 -2.028571428573463 0
64 -0.5567306167171669 -1.835714285716712 0
65 -0.6680767400605525 -1.642857142860137 0
66 -0.7794228634039569 -1.45000000000353 0
67 -0.890768986747958 -1.257142857145889 0
68 -1.002115110091964 -1.064285714288239 0
69 -1.113461233435968 -0.8714285714305934 0
70 -1.224807356779941 -0.6785714285730018 0
71 -1.336153480123908 -0.4857142857154191 0
72 -1.447499603467941 -0.2928571428577236 0
73 -1.299038105677319 0 0.1
74 -0.866025403786543 0 0.1
75 -0.4330127018955485 0 0.1
76 -4.596767411157998e-12 0 0.1
77 0.4330127018888255 0 0.1
78 0.866025403782205 0 0.1
79 1.299038105675585 0 0.1
80 1.336153480123695 -0.09999999999999998 0.1
81 1.113461233435661 -0.09999999999999998 0.1
82 0.8907689867477626 -0.09999999999999998 0.1
83 0.6680767400598895 -0.09999999999999998 0.1
84 0.4453844933720226 -0.09999999999999998 0.1
85 0.2226922466839203 -0.09999999999999998 0.1
86 -4.033662293068119e-12 -0.09999999999999998 0.1
87 -0.2226922466908845 -0.09999999999999998 0.1
88 -0.4453844933776923 -0.09999999999999998 0.1
89 -0.6680767400644564 -0.09999999999999998 0.1
90 -0.8907689867512637 -0.09999999999999998 0.1
91 -1.113461233438084 -0.09999999999999998 0.1
92 -1.336153480125009 -0.09999999999999998 0.1
93 1.515544456623576 -0.3749999999985998 0.1
94 1.299038105678327 -0.7499999999971083 0.1
95 1.082531754732927 -1.124999999995881 0.1
96 0.866025403787512 -1.499999999994677 0.1
97 0.6495190528406409 -1.874999999995996 0.1
98 0.4330127018937571 -2.249999999997336 0.1
99 0.2165063509468732 -2.624999999998678 0.1
100 0.1113461233440345 -2.607142857142301 0.1
101 0.222692246688053 -2.41428571428463 0.1
102 0.3340383700320058 -2.221428571427073 0.1
103 0.4453844933759987 -2.028571428569446 0.1
104 0.5567306167199857 -1.83571428571183 0.1
105 0.6680767400639965 -1.642857142854172 0.1
106 0.7794228634079886 -1.449999999996546 0.1
107 0.8907689867514189 -1.257142857139894 0.1
108 1.002115110094844 -1.064285714283252 0.1
109 1.113461233438231 -0.8714285714266735 0.1
110 1.22480735678164 -0.678571428570058 0.1
111 1.336153480125027 -0.4857142857134809 0.1
112 1.447499603468515 -0.2928571428567294 0.1
113 -0.2165063509452214 -2.625000000001538 0.1
114 -0.4330127018908336 -2.2500000000024 0.1
115 -0.6495190528368341 -1.875000000002589 0.1
116 -0.8660254037820592 -1.500000000004121 0.1
117 -1.082531754728757 -1.125000000003103 0.1
118 -1.299038105675467 -0.7500000000020628 0.1
119 -1.515544456622178 -0.3750000000010218 0.1
120 -1.447499603467941 -0.2928571428577236 0.1
121 -1.336153480123908 -0.4857142857154191 0.1
122 -1.224807356779941 -0.6785714285730018 0.1
123 -1.113461233435968 -0.8714285714305934 0.1
124 -1.002115110091964 -1.064285714288239 0.1
125 -0.890768986747958 -1.257142857145889 0.1
126 -0.7794228634039569 -1.45000000000353 0.1
127 -0.6680767400605525 -1.642857142860137 0.1
128 -0.5567306167171669 -1.835714285716712 0.1
129 -0.4453844933736795 -2.028571428573463 0.1
130 -0.3340383700302188 -2.221428571430168 0.1
131 -0.2226922466868928 -2.41428571428664 0.1
132 -0.1113461233433891 -2.607142857143419 0.1
133 -0.6680767400608919 -1.257142857146196 0
134 0.6680767400633753 -1.257142857139063 0
135 0.1113461233399433 -0.2928571428571214 0
136 -0.8907689867489017 -0.871428571430652 0
137 0.3340383700303623 -1.835714285711668 0
138 0.890768986750671 -0.8714285714277035 0
139 -0.4453844933746668 -1.642857142859991 0
140 -0.3340383700341993 -0.2928571428567766 0
141 0.556730616715956 -0.2928571428575237 0
142 -0.7794228634070666 -0.2928571428568275 0
143 -0.2226922466883282 -2.02857142857225 0
144 1.002115110091786 -0.2928571428572607 0
145 -1.113461233436466 -0.4857142857152591 0
146 0.1113461233439673 -2.221428571427167 0
147 2.91253132722602e-13 -2.414285714285651 0
148 1.224807356780123 -0.2928571428569381 0
149 -1.224807356780925 -0.2928571428574507 0
150 0.3340383700276869 -0.2928571428571984 0
151 0.2226922466837323 -0.4857142857139979 0
152 -3.554545546791132e-12 -0.4857142857138406 0
153 0.11134612333993 -0.6785714285707125 0
154 -0.1113461233471424 -0.6785714285705399 0
155 -3.714232625166384e-12 -0.871428571427416 0
156 0.3340383700269146 -0.6785714285707329 0
157 -0.2226922466903366 -0.8714285714274658 0
158 -0.1113461233468897 -1.064285714284349 0
159 0.1113461233397343 -1.0642857142843 0
160 -3.494989020413897e-12 -1.257142857140768 0
161 0.2226922466843653 -1.257142857140837 0
162 0.1113461233400438 -1.449999999997602 0
163 0.3340383700278201 -1.064285714282842 0
164 -0.3340383700340828 -0.6785714285703801 0
165 -0.4453844933762121 -0.8714285714291015 0
166 -0.556730616720079 -0.6785714285715071 0
167 -0.2226922466888871 -1.25714285714295 0
168 0.3340383700301144 -1.449999999997178 0
169 0.2226922466849692 -1.642857142854417 0
170 -4.288548498843573e-12 -1.642857142854811 0
171 0.1113461233412379 -1.835714285711797 0
172 -0.1113461233466554 -1.835714285713537 0
173 -0.7794228634048866 -1.064285714288721 0
174 -0.55673061671876 -1.064285714288172 0
175 0.2226922466871549 -2.028571428569554 0
176 -0.5567306167176164 -1.450000000003487 0
177 -0.3340383700321077 -1.450000000001428 0
178 0.7794228634038338 -0.2928571428574017 0
179 0.6680767400594615 -0.485714285714689 0
180 0.8907689867481038 -0.485714285714513 0
181 -0.1113461233471488 -0.2928571428570035 0
182 -1.002115110092714 -0.678571428572795 0
183 0.5567306167196525 -1.449999999996669 0
184 0.445384493374456 -1.257142857139319 0
185 0.5567306167143411 -1.06428571427837 0
186 0.4453844933748466 -1.642857142854322 0
187 0.4453844933714894 -0.4857142857142512 0
188 0.5567306167156237 -0.6785714285713109 0
189 0.7794228634056892 -0.6785714285714525 0
190 -0.8907689867492272 -0.4857142857149283 0
191 1.11346123343692 -0.4857142857138824 0
192 0.2226922466831373 -0.871428571427201 0
193 -0.5567306167210743 -0.2928571428565935 0
194 0.7794228634066803 -1.064285714282956 0
195 -0.4453844933772101 -0.4857142857135394 0
196 -0.2226922466905563 -0.4857142857136799 0
197 -1.002115110093839 -0.2928571428574109 0
198 -0.1113461233436373 -2.221428571428675 0
199 1.002115110093543 -0.6785714285707136 0
200 -9.289084052219837e-13 -2.028571428570404 0
201 -0.6680767400634002 -0.4857142857136473 0
202 -0.7794228634061976 -0.6785714285726293 0
203 -0.4453844933750482 -1.25714285714458 0
204 -0.3340383700326889 -1.064285714286103 0
205 -0.6680767400625062 -0.8714285714301306 0
206 -0.1113461233459242 -1.449999999997824 0
207 0.4453844933722115 -0.8714285714266518 0
208 -0.3340383700318353 -1.835714285715718 0
209 0.668076740062173 -0.8714285714272779 0
210 -0.2226922466900529 -1.642857142857939 0
211 -0.6680767400608919 -1.257142857146196 0.1
212 0.6680767400633753 -1.257142857139063 0.1
213 0.1113461233399433 -0.2928571428571214 0.1
214 -0.8907689867489017 -0.871428571430652 0.1
215 0.3340383700303623 -1.835714285711668 0.1
216 0.890768986750671 -0.8714285714277035 0.1
217 -0.4453844933746668 -1.642857142859991 0.1
218 -0.3340383700341993 -0.2928571428567766 0.1
219 0.556730616715956 -0.2928571428575237 0.1
220 -0.7794228634070666 -0.2928571428568275 0.1
221 -0.2226922466883282 -2.02857142857225 0.1
222 1.002115110091786 -0.2928571428572607 0.1
223 -1.113461233436466 -0.4857142857152591 0.1
224 0.1113461233439673 -2.221428571427167 0.1
225 2.91253132722602e-13 -2.414285714285651 0.1
226 1.224807356780123 -0.2928571428569381 0.1
227 -1.224807356780925 -0.2928571428574507 0.1
228 0.3340383700276869 -0.2928571428571984 0.1
229 0.2226922466837323 -0.4857142857139979 0.1
230 -3.554545546791132e-12 -0.4857142857138406 0.1
231 0.11134612333993 -0.6785714285707125 0.1
232 -0.1113461233471424 -0.6785714285705399 0.1
233 -3.714232625166384e-12 -0.871428571427416 0.1
234 0.3340383700269146 -0.6785714285707329 0.1
235 -0.2226922466903366 -0.8714285714274658 0.1
236 -0.1113461233468897 -1.064285714284349 0.1
237 0.1113461233397343 -1.0642857142843 0.1
238 -3.494989020413897e-12 -1.257142857140768 0.1
239 0.2226922466843653 -1.257142857140837 0.1
240 0.1113461233400438 -1.449999999997602 0.1
241 0.3340383700278201 -1.064285714282842 0.1
242 -0.3340383700340828 -0.6785714285703801 0.1
243 -0.4453844933762121 -0.8714285714291015 0.1
244 -0.556730616720079 -0.6785714285715071 0.1
245 -0.2226922466888871 -1.25714285714295 0.1
246 0.3340383700301144 -1.449999999997178 0.1
247 0.2226922466849692 -1.642857142854417 0.1
248 -4.288548498843573e-12 -1.642857142854811 0.1
249 0.1113461233412379 -1.835714285711797 0.1
250 -0.1113461233466554 -1.835714285713537 0.1
251 -0.7794228634048866 -1.064285714288721 0.1
252 -0.55673061671876 -1.064285714288172 0.1
253 0.2226922466871549 -2.028571428569554 0.1
254 -0.5567306167176164 -1.450000000003487 0.1
255 -0.3340383700321077 -1.450000000001428 0.1
256 0.7794228634038338 -0.2928571428574017 0.1
257 0.6680767400594615 -0.485714285714689 0.1
258 0.8907689867481038 -0.485714285714513 0.1
259 -0.1113461233471488 -0.2928571428570035 0.1
260 -1.002115110092714 -0.678571428572795 0.1
261 0.5567306167196525 -1.449999999996669 0.1
262 0.445384493374456 -1.257142857139319 0.1
263 0.5567306167143411 -1.06428571427837 0.1
264 0.4453844933748466 -1.642857142854322 0.1
265 0.4453844933714894 -0.4857142857142512 0.1
266 0.5567306167156237 -0.6785714285713109 0.1
267 0.7794228634056892 -0.6785714285714525 0.1
268 -0.8907689867492272 -0.4857142857149283 0.1
269 1.11346123343692 -0.4857142857138824 0.1
270 0.2226922466831373 -0.871428571427201 0.1
271 -0.5567306167210743 -0.2928571428565935 0.1
272 0.7794228634066803 -1.064285714282956 0.1
273 -0.4453844933772101 -0.4857142857135394 0.1
274 -0.2226922466905563 -0.4857142857136799 0.1
275 -1.002115110093839 -0.2928571428574109 0.1
276 -0.1113461233436373 -2.221428571428675 0.1
277 1.002115110093543 -0.6785714285707136 0.1
278 -9.289084052219837e-13 -2.028571428570404 0.1
279 -0.6680767400634002 -0.4857142857136473 0.1
280 -0.7794228634061976 -0.6785714285726293 0.1
281 -0.4453844933750482 -1.25714285714458 0.1
282 -0.3340383700326889 -1.064285714286103 0.1
283 -0.6680767400625062 -0.8714285714301306 0.1
284 -0.1113461233459242 -1.449999999997824 0.1
285 0.4453844933722115 -0.8714285714266518 0.1
286 -0.3340383700318353 -1.835714285715718 0.1
287 0.668076740062173 -0.8714285714272779 0.1
288 -0.2226922466900529 -1.642857142857939 0.1
$EndNodes
$Elements
738
1 2 2 1 1 40 39 16
2 2 2 1 1 16 41 40
3 2 2 1 1 36 35 14
4 2 2 1 1 14 37 36
5 2 2 1 1 18 45 44
6 2 2 1 1 44 43 18
7 2 2 1 2 53 52 23
8 2 2 1 2 23 54 53
9 2 2 1 2 49 48 21
10 2 2 1 2 21 50 49
11 2 2 1 2 25 58 57
12 2 2 1 2 57 56 25
13 2 2 1 3 66 65 30
14 2 2 1 3 30 67 66
15 2 2 1 3 62 61 28
16 2 2 1 3 28 63 62
17 2 2 1 3 32 71 70
18 2 2 1 3 70 69 32
19 2 2 1 4 46 5 47
20 2 2 1 4 6 60 59
21 2 2 1 4 34 72 4
22 2 2 1 4 207 188 209
23 2 2 1 4 134 185 194
24 2 2 1 4 168 161 184
25 2 2 1 4 183 168 184
26 2 2 1 4 161 163 184
27 2 2 1 4 168 183 186
28 2 2 1 4 134 184 185
29 2 2 1 4 169 137 171
30 2 2 1 4 137 169 186
31 2 2 1 4 189 180 199
32 2 2 1 4 171 137 175
33 2 2 1 4 56 57 175
34 2 2 1 4 169 168 186
35 2 2 1 4 185 207 209
36 2 2 1 4 202 166 205
37 2 2 1 4 138 189 199
38 2 2 1 4 143 172 200
39 2 2 1 4 190 145 197
40 2 2 1 4 206 170 210
41 2 2 1 4 184 163 185
42 2 2 1 4 57 146 175
43 2 2 1 4 146 198 200
44 2 2 1 4 137 56 175
45 2 2 1 4 203 174 204
46 2 2 1 4 142 190 197
47 2 2 1 4 54 55 186
48 2 2 1 4 148 48 191
49 2 2 1 4 60 61 147
50 2 2 1 4 48 49 191
51 2 2 1 4 47 48 148
52 2 2 1 4 172 171 200
53 2 2 1 4 55 137 186
54 2 2 1 4 59 60 147
55 2 2 1 4 46 47 148
56 2 2 1 4 156 187 188
57 2 2 1 4 165 157 204
58 2 2 1 4 174 165 204
59 2 2 1 4 34 35 149
60 2 2 1 4 187 179 188
61 2 2 1 4 72 34 149
62 2 2 1 4 42 141 150
63 2 2 1 4 133 173 174
64 2 2 1 4 183 54 186
65 2 2 1 4 133 67 173
66 2 2 1 4 66 67 133
67 2 2 1 4 180 144 191
68 2 2 1 4 179 180 189
69 2 2 1 4 40 41 135
70 2 2 1 4 167 177 203
71 2 2 1 4 141 179 187
72 2 2 1 4 180 191 199
73 2 2 1 4 150 141 187
74 2 2 1 4 156 151 187
75 2 2 1 4 151 150 187
76 2 2 1 4 66 133 176
77 2 2 1 4 188 189 209
78 2 2 1 4 166 165 205
79 2 2 1 4 165 174 205
80 2 2 1 4 40 135 181
81 2 2 1 4 136 202 205
82 2 2 1 4 141 178 179
83 2 2 1 4 68 136 173
84 2 2 1 4 65 66 176
85 2 2 1 4 135 150 151
86 2 2 1 4 139 65 176
87 2 2 1 4 70 145 182
88 2 2 1 4 144 45 148
89 2 2 1 4 39 40 181
90 2 2 1 4 141 43 178
91 2 2 1 4 67 68 173
92 2 2 1 4 140 39 181
93 2 2 1 4 178 144 180
94 2 2 1 4 144 148 191
95 2 2 1 4 146 58 147
96 2 2 1 4 177 167 206
97 2 2 1 4 188 179 189
98 2 2 1 4 145 71 149
99 2 2 1 4 194 185 209
100 2 2 1 4 41 42 150
101 2 2 1 4 152 154 196
102 2 2 1 4 182 145 190
103 2 2 1 4 179 178 180
104 2 2 1 4 181 152 196
105 2 2 1 4 167 203 204
106 2 2 1 4 44 144 178
107 2 2 1 4 44 45 144
108 2 2 1 4 58 59 147
109 2 2 1 4 135 151 152
110 2 2 1 4 135 152 181
111 2 2 1 4 136 69 182
112 2 2 1 4 139 176 177
113 2 2 1 4 135 41 150
114 2 2 1 4 140 181 196
115 2 2 1 4 45 46 148
116 2 2 1 4 70 71 145
117 2 2 1 4 57 58 146
118 2 2 1 4 145 149 197
119 2 2 1 4 68 69 136
120 2 2 1 4 71 72 149
121 2 2 1 4 55 56 137
122 2 2 1 4 69 70 182
123 2 2 1 4 146 147 198
124 2 2 1 4 170 171 172
125 2 2 1 4 42 43 141
126 2 2 1 4 198 143 200
127 2 2 1 4 43 44 178
128 2 2 1 4 155 153 192
129 2 2 1 4 153 156 192
130 2 2 1 4 157 155 158
131 2 2 1 4 164 166 195
132 2 2 1 4 152 151 153
133 2 2 1 4 158 155 159
134 2 2 1 4 53 54 183
135 2 2 1 4 154 155 157
136 2 2 1 4 154 164 196
137 2 2 1 4 158 160 167
138 2 2 1 4 161 159 163
139 2 2 1 4 153 151 156
140 2 2 1 4 159 155 192
141 2 2 1 4 163 159 192
142 2 2 1 4 195 140 196
143 2 2 1 4 154 153 155
144 2 2 1 4 62 63 143
145 2 2 1 4 158 159 160
146 2 2 1 4 160 159 161
147 2 2 1 4 154 157 164
148 2 2 1 4 162 169 170
149 2 2 1 4 170 169 171
150 2 2 1 4 52 53 134
151 2 2 1 4 51 52 194
152 2 2 1 4 164 195 196
153 2 2 1 4 152 153 154
154 2 2 1 4 164 165 166
155 2 2 1 4 164 157 165
156 2 2 1 4 36 37 142
157 2 2 1 4 38 39 140
158 2 2 1 4 37 38 193
159 2 2 1 4 64 65 139
160 2 2 1 4 50 51 138
161 2 2 1 4 160 161 162
162 2 2 1 4 201 166 202
163 2 2 1 4 52 134 194
164 2 2 1 4 193 140 195
165 2 2 1 4 138 51 194
166 2 2 1 4 142 37 193
167 2 2 1 4 38 140 193
168 2 2 1 4 162 161 168
169 2 2 1 4 134 183 184
170 2 2 1 4 162 168 169
171 2 2 1 4 147 61 198
172 2 2 1 4 134 53 183
173 2 2 1 4 175 146 200
174 2 2 1 4 177 206 210
175 2 2 1 4 149 35 197
176 2 2 1 4 61 62 198
177 2 2 1 4 35 36 197
178 2 2 1 4 191 49 199
179 2 2 1 4 174 173 205
180 2 2 1 4 49 50 199
181 2 2 1 4 156 188 207
182 2 2 1 4 172 143 208
183 2 2 1 4 133 174 203
184 2 2 1 4 177 176 203
185 2 2 1 4 62 143 198
186 2 2 1 4 36 142 197
187 2 2 1 4 136 182 202
188 2 2 1 4 185 163 207
189 2 2 1 4 208 139 210
190 2 2 1 4 190 142 201
191 2 2 1 4 195 166 201
192 2 2 1 4 171 175 200
193 2 2 1 4 190 201 202
194 2 2 1 4 50 138 199
195 2 2 1 4 157 158 204
196 2 2 1 4 142 193 201
197 2 2 1 4 163 192 207
198 2 2 1 4 167 160 206
199 2 2 1 4 162 170 206
200 2 2 1 4 64 139 208
201 2 2 1 4 143 63 208
202 2 2 1 4 193 195 201
203 2 2 1 4 189 138 209
204 2 2 1 4 176 133 203
205 2 2 1 4 182 190 202
206 2 2 1 4 138 194 209
207 2 2 1 4 173 136 205
208 2 2 1 4 158 167 204
209 2 2 1 4 172 208 210
210 2 2 1 4 192 156 207
211 2 2 1 4 170 172 210
212 2 2 1 4 160 162 206
213 2 2 1 4 63 64 208
214 2 2 1 4 139 177 210
215 2 2 2 31 86 87 76
216 2 2 2 31 76 85 86
217 2 2 2 31 90 91 74
218 2 2 2 31 74 89 90
219 2 2 2 31 78 81 82
220 2 2 2 31 82 83 78
221 2 2 2 53 106 107 96
222 2 2 2 53 96 105 106
223 2 2 2 53 110 111 94
224 2 2 2 53 94 109 110
225 2 2 2 53 98 101 102
226 2 2 2 53 102 103 98
227 2 2 2 75 126 127 116
228 2 2 2 75 116 125 126
229 2 2 2 75 130 131 114
230 2 2 2 75 114 129 130
231 2 2 2 75 118 121 122
232 2 2 2 75 122 123 118
233 2 2 2 92 80 9 112
234 2 2 2 92 12 132 100
235 2 2 2 92 92 120 10
236 2 2 2 92 285 266 287
237 2 2 2 92 212 263 272
238 2 2 2 92 246 239 262
239 2 2 2 92 261 246 262
240 2 2 2 92 239 241 262
241 2 2 2 92 246 261 264
242 2 2 2 92 212 262 263
243 2 2 2 92 247 215 249
244 2 2 2 92 215 247 264
245 2 2 2 92 267 258 277
246 2 2 2 92 249 215 253
247 2 2 2 92 103 102 253
248 2 2 2 92 247 246 264
249 2 2 2 92 263 285 287
250 2 2 2 92 280 244 283
251 2 2 2 92 216 267 277
252 2 2 2 92 221 250 278
253 2 2 2 92 268 223 275
254 2 2 2 92 284 248 288
255 2 2 2 92 262 241 263
256 2 2 2 92 102 224 253
257 2 2 2 92 224 276 278
258 2 2 2 92 215 103 253
259 2 2 2 92 281 252 282
260 2 2 2 92 220 268 275
261 2 2 2 92 105 104 264
262 2 2 2 92 226 111 269
263 2 2 2 92 132 131 225
264 2 2 2 92 111 110 269
265 2 2 2 92 112 111 226
266 2 2 2 92 250 249 278
267 2 2 2 92 104 215 264
268 2 2 2 92 100 132 225
269 2 2 2 92 80 112 226
270 2 2 2 92 234 265 266
271 2 2 2 92 243 235 282
272 2 2 2 92 252 243 282
273 2 2 2 92 92 91 227
274 2 2 2 92 265 257 266
275 2 2 2 92 120 92 227
276 2 2 2 92 84 219 228
277 2 2 2 92 211 251 252
278 2 2 2 92 261 105 264
279 2 2 2 92 211 125 251
280 2 2 2 92 126 125 211
281 2 2 2 92 258 222 269
282 2 2 2 92 257 258 267
283 2 2 2 92 86 85 213
284 2 2 2 92 245 255 281
285 2 2 2 92 219 257 265
286 2 2 2 92 258 269 277
287 2 2 2 92 228 219 265
288 2 2 2 92 234 229 265
289 2 2 2 92 229 228 265
290 2 2 2 92 126 211 254
291 2 2 2 92 266 267 287
292 2 2 2 92 244 243 283
293 2 2 2 92 243 252 283
294 2 2 2 92 86 213 259
295 2 2 2 92 214 280 283
296 2 2 2 92 219 256 257
297 2 2 2 92 124 214 251
298 2 2 2 92 127 126 254
299 2 2 2 92 213 228 229
300 2 2 2 92 217 127 254
301 2 2 2 92 122 223 260
302 2 2 2 92 222 81 226
303 2 2 2 92 87 86 259
304 2 2 2 92 219 83 256
305 2 2 2 92 125 124 251
306 2 2 2 92 218 87 259
307 2 2 2 92 256 222 258
308 2 2 2 92 222 226 269
309 2 2 2 92 224 101 225
310 2 2 2 92 255 245 284
311 2 2 2 92 266 257 267
312 2 2 2 92 223 121 227
313 2 2 2 92 272 263 287
314 2 2 2 92 85 84 228
315 2 2 2 92 230 232 274
316 2 2 2 92 260 223 268
317 2 2 2 92 257 256 258
318 2 2 2 92 259 230 274
319 2 2 2 92 245 281 282
320 2 2 2 92 82 222 256
321 2 2 2 92 82 81 222
322 2 2 2 92 101 100 225
323 2 2 2 92 213 229 230
324 2 2 2 92 213 230 259
325 2 2 2 92 214 123 260
326 2 2 2 92 217 254 255
327 2 2 2 92 213 85 228
328 2 2 2 92 218 259 274
329 2 2 2 92 81 80 226
330 2 2 2 92 122 121 223
331 2 2 2 92 102 101 224
332 2 2 2 92 223 227 275
333 2 2 2 92 124 123 214
334 2 2 2 92 121 120 227
335 2 2 2 92 104 103 215
336 2 2 2 92 123 122 260
337 2 2 2 92 224 225 276
338 2 2 2 92 248 249 250
339 2 2 2 92 84 83 219
340 2 2 2 92 276 221 278
341 2 2 2 92 83 82 256
342 2 2 2 92 233 231 270
343 2 2 2 92 231 234 270
344 2 2 2 92 235 233 236
345 2 2 2 92 242 244 273
346 2 2 2 92 230 229 231
347 2 2 2 92 236 233 237
348 2 2 2 92 106 105 261
349 2 2 2 92 232 233 235
350 2 2 2 92 232 242 274
351 2 2 2 92 236 238 245
352 2 2 2 92 239 237 241
353 2 2 2 92 231 229 234
354 2 2 2 92 237 233 270
355 2 2 2 92 241 237 270
356 2 2 2 92 273 218 274
357 2 2 2 92 232 231 233
358 2 2 2 92 130 129 221
359 2 2 2 92 236 237 238
360 2 2 2 92 238 237 239
361 2 2 2 92 232 235 242
362 2 2 2 92 240 247 248
363 2 2 2 92 248 247 249
364 2 2 2 92 107 106 212
365 2 2 2 92 108 107 272
366 2 2 2 92 242 273 274
367 2 2 2 92 230 231 232
368 2 2 2 92 242 243 244
369 2 2 2 92 242 235 243
370 2 2 2 92 90 89 220
371 2 2 2 92 88 87 218
372 2 2 2 92 89 88 271
373 2 2 2 92 128 127 217
374 2 2 2 92 109 108 216
375 2 2 2 92 238 239 240
376 2 2 2 92 279 244 280
377 2 2 2 92 107 212 272
378 2 2 2 92 271 218 273
379 2 2 2 92 216 108 272
380 2 2 2 92 220 89 271
381 2 2 2 92 88 218 271
382 2 2 2 92 240 239 246
383 2 2 2 92 212 261 262
384 2 2 2 92 240 246 247
385 2 2 2 92 225 131 276
386 2 2 2 92 212 106 261
387 2 2 2 92 253 224 278
388 2 2 2 92 255 284 288
389 2 2 2 92 227 91 275
390 2 2 2 92 131 130 276
391 2 2 2 92 91 90 275
392 2 2 2 92 269 110 277
393 2 2 2 92 252 251 283
394 2 2 2 92 110 109 277
395 2 2 2 92 234 266 285
396 2 2 2 92 250 221 286
397 2 2 2 92 211 252 281
398 2 2 2 92 255 254 281
399 2 2 2 92 130 221 276
400 2 2 2 92 90 220 275
401 2 2 2 92 214 260 280
402 2 2 2 92 263 241 285
403 2 2 2 92 286 217 288
404 2 2 2 92 268 220 279
405 2 2 2 92 273 244 279
406 2 2 2 92 249 253 278
407 2 2 2 92 268 279 280
408 2 2 2 92 109 216 277
409 2 2 2 92 235 236 282
410 2 2 2 92 220 271 279
411 2 2 2 92 241 270 285
412 2 2 2 92 245 238 284
413 2 2 2 92 240 248 284
414 2 2 2 92 128 217 286
415 2 2 2 92 221 129 286
416 2 2 2 92 271 273 279
417 2 2 2 92 267 216 287
418 2 2 2 92 254 211 281
419 2 2 2 92 260 268 280
420 2 2 2 92 216 272 287
421 2 2 2 92 251 214 283
422 2 2 2 92 236 245 282
423 2 2 2 92 250 286 288
424 2 2 2 92 270 234 285
425 2 2 2 92 248 250 288
426 2 2 2 92 238 240 284
427 2 2 2 92 129 128 286
428 2 2 2 92 217 255 288
429 3 2 1 1 34 13 14 35
430 3 2 1 1 38 37 14 15
431 3 2 1 1 38 15 16 39
432 3 2 1 1 42 41 16 17
433 3 2 1 1 42 17 18 43
434 3 2 1 1 46 45 18 19
435 3 2 1 1 1 13 34 4
436 3 2 1 1 2 5 46 19
437 3 2 1 2 47 20 21 48
438 3 2 1 2 51 50 21 22
439 3 2 1 2 51 22 23 52
440 3 2 1 2 55 54 23 24
441 3 2 1 2 55 24 25 56
442 3 2 1 2 59 58 25 26
443 3 2 1 2 2 20 47 5
444 3 2 1 2 3 6 59 26
445 3 2 1 3 60 27 28 61
446 3 2 1 3 64 63 28 29
447 3 2 1 3 64 29 30 65
448 3 2 1 3 68 67 30 31
449 3 2 1 3 68 31 32 69
450 3 2 1 3 72 71 32 33
451 3 2 1 3 1 4 72 33
452 3 2 1 3 3 27 60 6
453 3 2 3 18 1 13 73 7
454 3 2 3 18 13 14 74 73
455 3 2 3 18 14 15 75 74
456 3 2 3 18 15 16 76 75
457 3 2 3 18 16 17 77 76
458 3 2 3 18 17 18 78 77
459 3 2 3 18 18 19 79 78
460 3 2 3 18 19 2 8 79
461 3 2 2 31 92 73 74 91
462 3 2 2 31 88 89 74 75
463 3 2 2 31 88 75 76 87
464 3 2 2 31 84 85 76 77
465 3 2 2 31 84 77 78 83
466 3 2 2 31 80 81 78 79
467 3 2 2 31 7 73 92 10
468 3 2 2 31 8 9 80 79
469 3 2 5 40 2 20 93 8
470 3 2 5 40 20 21 94 93
471 3 2 5 40 21 22 95 94
472 3 2 5 40 22 23 96 95
473 3 2 5 40 23 24 97 96
474 3 2 5 40 24 25 98 97
475 3 2 5 40 25 26 99 98
476 3 2 5 40 26 3 11 99
477 3 2 2 53 112 93 94 111
478 3 2 2 53 108 109 94 95
479 3 2 2 53 108 95 96 107
480 3 2 2 53 104 105 96 97
481 3 2 2 53 104 97 98 103
482 3 2 2 53 100 101 98 99
483 3 2 2 53 8 93 112 9
484 3 2 2 53 11 12 100 99
485 3 2 4 62 3 27 113 11
486 3 2 4 62 27 28 114 113
487 3 2 4 62 28 29 115 114
488 3 2 4 62 29 30 116 115
489 3 2 4 62 30 31 117 116
490 3 2 4 62 31 32 118 117
491 3 2 4 62 32 33 119 118
492 3 2 4 62 33 1 7 119
493 3 2 2 75 132 113 114 131
494 3 2 2 75 128 129 114 115
495 3 2 2 75 128 115 116 127
496 3 2 2 75 124 125 116 117
497 3 2 2 75 124 117 118 123
498 3 2 2 75 120 121 118 119
499 3 2 2 75 7 10 120 119
500 3 2 2 75 11 113 132 12
501 5 2 6 1 14 13 34 35 74 73 92 91
502 5 2 6 1 14 37 38 15 74 89 88 75
503 5 2 6 1 16 15 38 39 76 75 88 87
504 5 2 6 1 16 41 42 17 76 85 84 77
505 5 2 6 1 18 17 42 43 78 77 84 83
506 5 2 6 1 18 45 46 19 78 81 80 79
507 5 2 6 1 34 13 1 4 92 73 7 10
508 5 2 6 1 46 5 2 19 80 9 8 79
509 5 2 6 2 21 20 47 48 94 93 112 111
510 5 2 6 2 21 50 51 22 94 109 108 95
511 5 2 6 2 23 22 51 52 96 95 108 107
512 5 2 6 2 23 54 55 24 96 105 104 97
513 5 2 6 2 25 24 55 56 98 97 104 103
514 5 2 6 2 25 58 59 26 98 101 100 99
515 5 2 6 2 47 20 2 5 112 93 8 9
516 5 2 6 2 59 6 3 26 100 12 11 99
517 5 2 6 3 28 27 60 61 114 113 132 131
518 5 2 6 3 28 63 64 29 114 129 128 115
519 5 2 6 3 30 29 64 65 116 115 128 127
520 5 2 6 3 30 67 68 31 116 125 124 117
521 5 2 6 3 32 31 68 69 118 117 124 123
522 5 2 6 3 32 71 72 33 118 121 120 119
523 5 2 6 3 72 4 1 33 120 10 7 119
524 5 2 6 3 60 27 3 6 132 113 11 12
525 6 2 6 1 39 40 16 87 86 76
526 6 2 6 1 41 16 40 85 76 86
527 6 2 6 1 35 36 14 91 90 74
528 6 2 6 1 37 14 36 89 74 90
529 6 2 6 1 45 18 44 81 78 82
530 6 2 6 1 43 44 18 83 82 78
531 6 2 6 2 52 53 23 107 106 96
532 6 2 6 2 54 23 53 105 96 106
533 6 2 6 2 48 49 21 111 110 94
534 6 2 6 2 50 21 49 109 94 110
535 6 2 6 2 58 25 57 101 98 102
536 6 2 6 2 56 57 25 103 102 98
537 6 2 6 3 65 66 30 127 126 116
538 6 2 6 3 67 30 66 125 116 126
539 6 2 6 3 61 62 28 131 130 114
540 6 2 6 3 63 28 62 129 114 130
541 6 2 6 3 71 32 70 121 118 122
542 6 2 6 3 69 70 32 123 122 118
543 6 2 6 4 5 46 47 9 80 112
544 6 2 6 4 60 6 59 132 12 100
545 6 2 6 4 72 34 4 120 92 10
546 6 2 6 4 188 207 209 266 285 287
547 6 2 6 4 185 134 194 263 212 272
548 6 2 6 4 161 168 184 239 246 262
549 6 2 6 4 168 183 184 246 261 262
550 6 2 6 4 163 161 184 241 239 262
551 6 2 6 4 183 168 186 261 246 264
552 6 2 6 4 184 134 185 262 212 263
553 6 2 6 4 137 169 171 215 247 249
554 6 2 6 4 169 137 186 247 215 264
555 6 2 6 4 180 189 199 258 267 277
556 6 2 6 4 137 171 175 215 249 253
557 6 2 6 4 57 56 175 102 103 253
558 6 2 6 4 168 169 186 246 247 264
559 6 2 6 4 207 185 209 285 263 287
560 6 2 6 4 166 202 205 244 280 283
561 6 2 6 4 189 138 199 267 216 277
562 6 2 6 4 172 143 200 250 221 278
563 6 2 6 4 145 190 197 223 268 275
564 6 2 6 4 170 206 210 248 284 288
565 6 2 6 4 163 184 185 241 262 263
566 6 2 6 4 146 57 175 224 102 253
567 6 2 6 4 198 146 200 276 224 278
568 6 2 6 4 56 137 175 103 215 253
569 6 2 6 4 174 203 204 252 281 282
570 6 2 6 4 190 142 197 268 220 275
571 6 2 6 4 55 54 186 104 105 264
572 6 2 6 4 48 148 191 111 226 269
573 6 2 6 4 61 60 147 131 132 225
574 6 2 6 4 49 48 191 110 111 269
575 6 2 6 4 48 47 148 111 112 226
576 6 2 6 4 171 172 200 249 250 278
577 6 2 6 4 137 55 186 215 104 264
578 6 2 6 4 60 59 147 132 100 225
579 6 2 6 4 47 46 148 112 80 226
580 6 2 6 4 187 156 188 265 234 266
581 6 2 6 4 157 165 204 235 243 282
582 6 2 6 4 165 174 204 243 252 282
583 6 2 6 4 35 34 149 91 92 227
584 6 2 6 4 179 187 188 257 265 266
585 6 2 6 4 34 72 149 92 120 227
586 6 2 6 4 141 42 150 219 84 228
587 6 2 6 4 173 133 174 251 211 252
588 6 2 6 4 54 183 186 105 261 264
589 6 2 6 4 67 133 173 125 211 251
590 6 2 6 4 67 66 133 125 126 211
591 6 2 6 4 144 180 191 222 258 269
592 6 2 6 4 180 179 189 258 257 267
593 6 2 6 4 41 40 135 85 86 213
594 6 2 6 4 177 167 203 255 245 281
595 6 2 6 4 179 141 187 257 219 265
596 6 2 6 4 191 180 199 269 258 277
597 6 2 6 4 141 150 187 219 228 265
598 6 2 6 4 151 156 187 229 234 265
599 6 2 6 4 150 151 187 228 229 265
600 6 2 6 4 133 66 176 211 126 254
601 6 2 6 4 189 188 209 267 266 287
602 6 2 6 4 165 166 205 243 244 283
603 6 2 6 4 174 165 205 252 243 283
604 6 2 6 4 135 40 181 213 86 259
605 6 2 6 4 202 136 205 280 214 283
606 6 2 6 4 178 141 179 256 219 257
607 6 2 6 4 136 68 173 214 124 251
608 6 2 6 4 66 65 176 126 127 254
609 6 2 6 4 150 135 151 228 213 229
610 6 2 6 4 65 139 176 127 217 254
611 6 2 6 4 145 70 182 223 122 260
612 6 2 6 4 45 144 148 81 222 226
613 6 2 6 4 40 39 181 86 87 259
614 6 2 6 4 43 141 178 83 219 256
615 6 2 6 4 68 67 173 124 125 251
616 6 2 6 4 39 140 181 87 218 259
617 6 2 6 4 144 178 180 222 256 258
618 6 2 6 4 148 144 191 226 222 269
619 6 2 6 4 58 146 147 101 224 225
620 6 2 6 4 167 177 206 245 255 284
621 6 2 6 4 179 188 189 257 266 267
622 6 2 6 4 71 145 149 121 223 227
623 6 2 6 4 185 194 209 263 272 287
624 6 2 6 4 42 41 150 84 85 228
625 6 2 6 4 154 152 196 232 230 274
626 6 2 6 4 145 182 190 223 260 268
627 6 2 6 4 178 179 180 256 257 258
628 6 2 6 4 152 181 196 230 259 274
629 6 2 6 4 203 167 204 281 245 282
630 6 2 6 4 144 44 178 222 82 256
631 6 2 6 4 45 44 144 81 82 222
632 6 2 6 4 59 58 147 100 101 225
633 6 2 6 4 151 135 152 229 213 230
634 6 2 6 4 152 135 181 230 213 259
635 6 2 6 4 69 136 182 123 214 260
636 6 2 6 4 176 139 177 254 217 255
637 6 2 6 4 41 135 150 85 213 228
638 6 2 6 4 181 140 196 259 218 274
639 6 2 6 4 46 45 148 80 81 226
640 6 2 6 4 71 70 145 121 122 223
641 6 2 6 4 58 57 146 101 102 224
642 6 2 6 4 149 145 197 227 223 275
643 6 2 6 4 69 68 136 123 124 214
644 6 2 6 4 72 71 149 120 121 227
645 6 2 6 4 56 55 137 103 104 215
646 6 2 6 4 70 69 182 122 123 260
647 6 2 6 4 147 146 198 225 224 276
648 6 2 6 4 171 170 172 249 248 250
649 6 2 6 4 43 42 141 83 84 219
650 6 2 6 4 143 198 200 221 276 278
651 6 2 6 4 44 43 178 82 83 256
652 6 2 6 4 153 155 192 231 233 270
653 6 2 6 4 156 153 192 234 231 270
654 6 2 6 4 155 157 158 233 235 236
655 6 2 6 4 166 164 195 244 242 273
656 6 2 6 4 151 152 153 229 230 231
657 6 2 6 4 155 158 159 233 236 237
658 6 2 6 4 54 53 183 105 106 261
659 6 2 6 4 155 154 157 233 232 235
660 6 2 6 4 164 154 196 242 232 274
661 6 2 6 4 160 158 167 238 236 245
662 6 2 6 4 159 161 163 237 239 241
663 6 2 6 4 151 153 156 229 231 234
664 6 2 6 4 155 159 192 233 237 270
665 6 2 6 4 159 163 192 237 241 270
666 6 2 6 4 140 195 196 218 273 274
667 6 2 6 4 153 154 155 231 232 233
668 6 2 6 4 63 62 143 129 130 221
669 6 2 6 4 159 158 160 237 236 238
670 6 2 6 4 159 160 161 237 238 239
671 6 2 6 4 157 154 164 235 232 242
672 6 2 6 4 169 162 170 247 240 248
673 6 2 6 4 169 170 171 247 248 249
674 6 2 6 4 53 52 134 106 107 212
675 6 2 6 4 52 51 194 107 108 272
676 6 2 6 4 195 164 196 273 242 274
677 6 2 6 4 153 152 154 231 230 232
678 6 2 6 4 165 164 166 243 242 244
679 6 2 6 4 157 164 165 235 242 243
680 6 2 6 4 37 36 142 89 90 220
681 6 2 6 4 39 38 140 87 88 218
682 6 2 6 4 38 37 193 88 89 271
683 6 2 6 4 65 64 139 127 128 217
684 6 2 6 4 51 50 138 108 109 216
685 6 2 6 4 161 160 162 239 238 240
686 6 2 6 4 166 201 202 244 279 280
687 6 2 6 4 134 52 194 212 107 272
688 6 2 6 4 140 193 195 218 271 273
689 6 2 6 4 51 138 194 108 216 272
690 6 2 6 4 37 142 193 89 220 271
691 6 2 6 4 140 38 193 218 88 271
692 6 2 6 4 161 162 168 239 240 246
693 6 2 6 4 183 134 184 261 212 262
694 6 2 6 4 168 162 169 246 240 247
695 6 2 6 4 61 147 198 131 225 276
696 6 2 6 4 53 134 183 106 212 261
697 6 2 6 4 146 175 200 224 253 278
698 6 2 6 4 206 177 210 284 255 288
699 6 2 6 4 35 149 197 91 227 275
700 6 2 6 4 62 61 198 130 131 276
701 6 2 6 4 36 35 197 90 91 275
702 6 2 6 4 49 191 199 110 269 277
703 6 2 6 4 173 174 205 251 252 283
704 6 2 6 4 50 49 199 109 110 277
705 6 2 6 4 188 156 207 266 234 285
706 6 2 6 4 143 172 208 221 250 286
707 6 2 6 4 174 133 203 252 211 281
708 6 2 6 4 176 177 203 254 255 281
709 6 2 6 4 143 62 198 221 130 276
710 6 2 6 4 142 36 197 220 90 275
711 6 2 6 4 182 136 202 260 214 280
712 6 2 6 4 163 185 207 241 263 285
713 6 2 6 4 139 208 210 217 286 288
714 6 2 6 4 142 190 201 220 268 279
715 6 2 6 4 166 195 201 244 273 279
716 6 2 6 4 175 171 200 253 249 278
717 6 2 6 4 201 190 202 279 268 280
718 6 2 6 4 138 50 199 216 109 277
719 6 2 6 4 158 157 204 236 235 282
720 6 2 6 4 193 142 201 271 220 279
721 6 2 6 4 192 163 207 270 241 285
722 6 2 6 4 160 167 206 238 245 284
723 6 2 6 4 170 162 206 248 240 284
724 6 2 6 4 139 64 208 217 128 286
725 6 2 6 4 63 143 208 129 221 286
726 6 2 6 4 195 193 201 273 271 279
727 6 2 6 4 138 189 209 216 267 287
728 6 2 6 4 133 176 203 211 254 281
729 6 2 6 4 190 182 202 268 260 280
730 6 2 6 4 194 138 209 272 216 287
731 6 2 6 4 136 173 205 214 251 283
732 6 2 6 4 167 158 204 245 236 282
733 6 2 6 4 208 172 210 286 250 288
734 6 2 6 4 156 192 207 234 270 285
735 6 2 6 4 172 170 210 250 248 288
736 6 2 6 4 162 160 206 240 238 284
737 6 2 6 4 64 63 208 128 129 286
738 6 2 6 4 177 139 210 255 217 288
$EndElements
